<?xml version="1.0" ?><svg style="enable-background:new 0 0 512 512;" version="1.1" viewBox="0 0 512 512" xml:space="preserve" xmlns="http://www.w3.org/2000/svg" xmlns:xlink="http://www.w3.org/1999/xlink"><g id="_x31_9_x2C__medica_x2C__Health_x2C__healthcare_x2C__sign"><g id="XMLID_1452_"><g id="XMLID_1453_"><path d="M451,258.5c0-107.523-87.477-195-195-195s-195,87.477-195,195s87.477,195,195,195     S451,366.023,451,258.5z M71,258.5c0-102.009,82.99-185,185-185s185,82.991,185,185c0,102.01-82.99,185-185,185     S71,360.51,71,258.5z" id="XMLID_1471_"/><path d="M256,38.5c2.762,0,5-2.239,5-5s-2.238-5-5-5c-61.436,0-119.193,23.924-162.635,67.365     C49.924,139.307,26,197.065,26,258.5c0,2.762,2.238,5,5,5c2.762,0,5-2.238,5-5C36,137.191,134.691,38.5,256,38.5z" id="XMLID_564_"/><path d="M481,253.5c-2.762,0-5,2.238-5,5c0,121.309-98.691,220-220,220c-2.762,0-5,2.238-5,5s2.238,5,5,5     c61.435,0,119.193-23.924,162.635-67.365S486,319.935,486,258.5C486,255.738,483.762,253.5,481,253.5z" id="XMLID_563_"/><path d="M301,378.5v-75h75c2.762,0,5-2.238,5-5v-80c0-2.761-2.238-5-5-5h-75v-75c0-2.761-2.238-5-5-5h-80     c-2.762,0-5,2.239-5,5v75h-75c-2.762,0-5,2.239-5,5v80c0,2.762,2.238,5,5,5h75v75c0,2.762,2.238,5,5,5h80     C298.762,383.5,301,381.262,301,378.5z M291,298.5v75h-70v-75c0-2.762-2.238-5-5-5h-75v-70h75c2.762,0,5-2.239,5-5v-75h70v75     c0,2.761,2.238,5,5,5h75v70h-75C293.238,293.5,291,295.738,291,298.5z" id="XMLID_1466_"/><path d="M441,103.5c22.056,0,40-17.944,40-40s-17.944-40-40-40c-22.056,0-40,17.944-40,40     S418.944,103.5,441,103.5z M441,33.5c16.542,0,30,13.458,30,30s-13.458,30-30,30s-30-13.458-30-30S424.458,33.5,441,33.5z" id="XMLID_1463_"/><path d="M71,408.5c-16.542,0-30,13.458-30,30s13.458,30,30,30s30-13.458,30-30S87.542,408.5,71,408.5z      M71,458.5c-11.028,0-20-8.972-20-20s8.972-20,20-20c11.028,0,20,8.972,20,20S82.028,458.5,71,458.5z" id="XMLID_1460_"/><circle cx="458.5" cy="166" id="XMLID_556_" r="7.5"/><circle cx="348.5" cy="41" id="XMLID_555_" r="7.5"/><circle cx="93.5" cy="41" id="XMLID_554_" r="7.5"/><circle cx="453.5" cy="436" id="XMLID_553_" r="7.5"/><circle cx="178.5" cy="461" id="XMLID_552_" r="7.5"/><circle cx="43.5" cy="353.5" id="XMLID_551_" r="7.5"/></g></g></g><g id="Layer_1"/></svg>